<svg xmlns="http://www.w3.org/2000/svg" xmlns:xlink="http://www.w3.org/1999/xlink" width="2000" zoomAndPan="magnify" viewBox="0 0 1500 1499.999933" height="2000" preserveAspectRatio="xMidYMid meet" version="1.0"><defs><clipPath id="e59277bd2e"><path d="M 448.8125 555.03125 L 1047.21875 555.03125 L 1047.21875 941 L 448.8125 941 Z M 448.8125 555.03125 " clip-rule="nonzero"/></clipPath><clipPath id="19ab7473a2"><path d="M 335.46875 311.40625 L 1209 311.40625 L 1209 1185 L 335.46875 1185 Z M 335.46875 311.40625 " clip-rule="nonzero"/></clipPath></defs><rect x="-150" width="1800" fill="#ffffff" y="-149.999993" height="1799.99992" fill-opacity="1"/><rect x="-150" width="1800" fill="#2c6b8a" y="-149.999993" height="1799.99992" fill-opacity="1"/><g clip-path="url(#e59277bd2e)"><path fill="#ffeee9" d="M 1032.96875 590.78125 C 1023.46875 576.65625 1010.34375 566.375 993.53125 559.9375 C 984.25 556.71875 973.5625 555.125 961.46875 555.09375 C 961.375 555.09375 961.3125 555.09375 961.21875 555.125 C 926.9375 558 902.8125 575.875 888.90625 608.78125 L 876.625 642.375 C 875.875 644.46875 872.90625 644.5 872.09375 642.40625 L 839.59375 556.6875 C 839.21875 555.71875 838.3125 555.125 837.3125 555.125 L 796.875 555.125 C 795.1875 555.125 794 556.8125 794.625 558.375 L 851.53125 708.8125 C 851.75 709.34375 851.75 709.96875 851.5625 710.5 L 793.46875 868.3125 C 792.6875 870.40625 789.75 870.4375 788.9375 868.34375 L 683.375 588.75 C 683.03125 587.875 710 559.21875 710 559.21875 C 711.46875 557.6875 710.40625 555.125 708.25 555.125 L 594.84375 555.125 L 594.9375 555.21875 C 585 555.15625 576.09375 555.125 573.28125 555.125 C 540.375 555.125 514 563.15625 494.15625 579.25 C 474.3125 595.34375 464.375 616.65625 464.375 643.125 C 464.375 660.65625 467.9375 675.21875 475.09375 686.84375 C 482.25 698.46875 492.625 709.03125 506.21875 718.5 C 519.8125 728 541.46875 740.96875 571.15625 757.40625 C 585.8125 765.28125 599.6875 773.78125 612.75 782.90625 C 625.8125 792.03125 636.53125 802.6875 644.9375 814.84375 C 653.34375 827 657.5625 841.84375 657.5625 859.375 C 657.5625 882.25 650.03125 900.6875 635 914.625 C 620 928.5625 598.15625 935.5625 569.53125 935.5625 C 539.15625 935.5625 512.40625 926.90625 489.34375 909.53125 C 466.25 892.1875 454.71875 870.65625 454.71875 844.875 C 454.71875 817.6875 463.84375 796.84375 482.09375 782.34375 C 499.84375 768.25 522.84375 761.03125 551.09375 760.625 C 552.40625 760.625 553.4375 759.53125 553.4375 758.21875 C 553.4375 756.875 552.34375 755.78125 550.96875 755.8125 C 532.96875 756.09375 516.34375 759.28125 501.125 765.4375 C 485.1875 771.90625 472.5 781.65625 463.03125 794.71875 C 453.53125 807.75 448.8125 824.5 448.8125 844.875 C 448.8125 872.0625 460.96875 894.78125 485.28125 913.03125 C 509.59375 931.25 537.6875 940.40625 569.53125 940.40625 L 569.53125 940.9375 C 609.9375 940.9375 641.15625 931.34375 663.1875 912.21875 C 685.1875 893.09375 696.15625 868.6875 696.15625 838.96875 C 696.15625 818.9375 692.25 802.40625 684.375 789.34375 C 676.5 776.28125 665.84375 764.84375 652.4375 755 C 639.03125 745.15625 623.71875 735.40625 606.5625 725.75 L 577.0625 708.0625 C 564.875 700.875 552.625 693.03125 540.28125 684.4375 C 527.96875 675.84375 517.5625 666.28125 509.1875 655.71875 C 500.78125 645.1875 496.5625 633.28125 496.5625 620.03125 C 496.5625 601.8125 503.625 587.3125 517.75 576.5625 C 531.875 565.84375 550.40625 560.46875 573.28125 560.46875 C 573.4375 560.46875 573.65625 560.46875 573.90625 560.46875 C 592.125 560.75 609.6875 567.25 623.75 578.8125 C 631.5 585.1875 638.46875 590.96875 638.5 591.125 L 765.40625 928.625 C 765.75 929.59375 766.65625 930.1875 767.65625 930.1875 L 775.03125 930.1875 C 776.0625 930.1875 776.96875 929.5625 777.3125 928.625 L 852.28125 723.8125 C 853.0625 721.71875 856.03125 721.71875 856.8125 723.8125 L 933.90625 928.65625 C 934.25 929.59375 935.15625 930.21875 936.15625 930.21875 L 943.53125 930.21875 C 944.5625 930.21875 945.46875 929.5625 945.8125 928.625 L 1042.34375 665.125 C 1045.5625 655.46875 1047.1875 646.1875 1047.1875 637.21875 C 1047.1875 620.40625 1042.4375 604.9375 1032.96875 590.78125 Z M 1037.53125 663.5 L 961.96875 868.34375 C 961.1875 870.4375 958.21875 870.4375 957.4375 868.34375 L 877.40625 656.84375 C 877.1875 656.3125 877.1875 655.6875 877.40625 655.125 C 883.03125 640.375 888.625 625.46875 894.25 610.375 C 899.96875 595 909.4375 582.84375 922.6875 573.90625 C 935.90625 564.96875 950.25 560.46875 965.625 560.46875 C 974.1875 560.46875 982.96875 562.09375 991.90625 565.3125 C 1007.65625 571.40625 1020 580.96875 1028.9375 594.03125 C 1037.875 607.09375 1042.34375 621.46875 1042.34375 637.21875 C 1042.34375 645.8125 1040.75 654.5625 1037.53125 663.5 Z M 1037.53125 663.5 " fill-opacity="1" fill-rule="nonzero"/></g><g clip-path="url(#19ab7473a2)"><path fill="#ffeee9" d="M 772.03125 1184.53125 C 530.84375 1184.53125 335.46875 987.8125 335.46875 747.96875 C 335.46875 508.125 530.84375 311.40625 772.03125 311.40625 C 1013.21875 311.40625 1208.59375 506.78125 1208.59375 747.96875 C 1208.59375 989.15625 1011.875 1184.53125 772.03125 1184.53125 Z M 772.03125 338.375 C 545.6875 338.375 362.4375 521.59375 362.4375 747.96875 C 362.4375 974.34375 545.6875 1157.5625 772.03125 1157.5625 C 998.40625 1157.5625 1181.65625 974.34375 1181.65625 747.96875 C 1181.65625 521.59375 997.0625 338.375 772.03125 338.375 Z M 772.03125 338.375 " fill-opacity="1" fill-rule="nonzero"/></g></svg>